<mxfile host="Electron" agent="Mozilla/5.0 (Windows NT 10.0; Win64; x64) AppleWebKit/537.36 (KHTML, like Gecko) draw.io/24.7.8 Chrome/128.0.6613.36 Electron/32.0.1 Safari/537.36" version="24.7.8">
  <diagram name="Page-1" id="uq9tVkFY0VpL2rFD1yWa">
    <mxGraphModel dx="882" dy="587" grid="1" gridSize="10" guides="1" tooltips="1" connect="1" arrows="1" fold="1" page="1" pageScale="1" pageWidth="1169" pageHeight="827" math="0" shadow="0">
      <root>
        <mxCell id="0" />
        <mxCell id="1" parent="0" />
        <mxCell id="k-hOgq2_AKB81ZH2Ypp2-1" value="Sucursales" style="rounded=0;whiteSpace=wrap;html=1;fontFamily=Sofia Sans Semi Condensed;fontSize=15;" parent="1" vertex="1">
          <mxGeometry x="606" y="810" width="90" height="40" as="geometry" />
        </mxCell>
        <mxCell id="k-hOgq2_AKB81ZH2Ypp2-2" value="id_sucursal" style="ellipse;whiteSpace=wrap;html=1;fontFamily=Sofia Sans Semi Condensed;fontSize=15;fontStyle=4" parent="1" vertex="1">
          <mxGeometry x="480" y="720" width="100" height="40" as="geometry" />
        </mxCell>
        <mxCell id="k-hOgq2_AKB81ZH2Ypp2-3" value="nombre" style="ellipse;whiteSpace=wrap;html=1;fontFamily=Sofia Sans Semi Condensed;fontSize=15;" parent="1" vertex="1">
          <mxGeometry x="440" y="820" width="100" height="40" as="geometry" />
        </mxCell>
        <mxCell id="k-hOgq2_AKB81ZH2Ypp2-4" value="ubicacion" style="ellipse;whiteSpace=wrap;html=1;fontFamily=Sofia Sans Semi Condensed;fontSize=15;" parent="1" vertex="1">
          <mxGeometry x="721" y="740" width="100" height="40" as="geometry" />
        </mxCell>
        <mxCell id="k-hOgq2_AKB81ZH2Ypp2-6" value="" style="endArrow=none;html=1;rounded=0;" parent="1" source="k-hOgq2_AKB81ZH2Ypp2-1" target="k-hOgq2_AKB81ZH2Ypp2-4" edge="1">
          <mxGeometry width="50" height="50" relative="1" as="geometry">
            <mxPoint x="751" y="1010" as="sourcePoint" />
            <mxPoint x="891" y="900" as="targetPoint" />
          </mxGeometry>
        </mxCell>
        <mxCell id="k-hOgq2_AKB81ZH2Ypp2-7" value="" style="endArrow=none;html=1;rounded=0;" parent="1" source="k-hOgq2_AKB81ZH2Ypp2-1" target="k-hOgq2_AKB81ZH2Ypp2-3" edge="1">
          <mxGeometry width="50" height="50" relative="1" as="geometry">
            <mxPoint x="731" y="910" as="sourcePoint" />
            <mxPoint x="901" y="910" as="targetPoint" />
          </mxGeometry>
        </mxCell>
        <mxCell id="k-hOgq2_AKB81ZH2Ypp2-8" value="" style="endArrow=none;html=1;rounded=0;" parent="1" source="k-hOgq2_AKB81ZH2Ypp2-1" target="k-hOgq2_AKB81ZH2Ypp2-2" edge="1">
          <mxGeometry width="50" height="50" relative="1" as="geometry">
            <mxPoint x="741" y="920" as="sourcePoint" />
            <mxPoint x="911" y="920" as="targetPoint" />
          </mxGeometry>
        </mxCell>
        <mxCell id="k-hOgq2_AKB81ZH2Ypp2-9" value="Empleados" style="rounded=0;whiteSpace=wrap;html=1;fontFamily=Sofia Sans Semi Condensed;fontSize=15;" parent="1" vertex="1">
          <mxGeometry x="645" y="470" width="90" height="40" as="geometry" />
        </mxCell>
        <mxCell id="k-hOgq2_AKB81ZH2Ypp2-10" value="dpi" style="ellipse;whiteSpace=wrap;html=1;fontFamily=Sofia Sans Semi Condensed;fontSize=15;fontStyle=4" parent="1" vertex="1">
          <mxGeometry x="460" y="500" width="100" height="40" as="geometry" />
        </mxCell>
        <mxCell id="k-hOgq2_AKB81ZH2Ypp2-11" value="nombre" style="ellipse;whiteSpace=wrap;html=1;fontFamily=Sofia Sans Semi Condensed;fontSize=15;" parent="1" vertex="1">
          <mxGeometry x="510" y="390" width="100" height="40" as="geometry" />
        </mxCell>
        <mxCell id="k-hOgq2_AKB81ZH2Ypp2-13" value="1" style="endArrow=none;html=1;rounded=0;" parent="1" source="k-hOgq2_AKB81ZH2Ypp2-9" target="k-hOgq2_AKB81ZH2Ypp2-28" edge="1">
          <mxGeometry x="-0.5514" y="-9" width="50" height="50" relative="1" as="geometry">
            <mxPoint x="790" y="670" as="sourcePoint" />
            <mxPoint x="725.8043240382124" y="319.92946081849095" as="targetPoint" />
            <mxPoint as="offset" />
          </mxGeometry>
        </mxCell>
        <mxCell id="k-hOgq2_AKB81ZH2Ypp2-14" value="" style="endArrow=none;html=1;rounded=0;" parent="1" source="k-hOgq2_AKB81ZH2Ypp2-9" target="k-hOgq2_AKB81ZH2Ypp2-11" edge="1">
          <mxGeometry width="50" height="50" relative="1" as="geometry">
            <mxPoint x="770" y="570" as="sourcePoint" />
            <mxPoint x="940" y="570" as="targetPoint" />
          </mxGeometry>
        </mxCell>
        <mxCell id="k-hOgq2_AKB81ZH2Ypp2-15" value="" style="endArrow=none;html=1;rounded=0;" parent="1" source="k-hOgq2_AKB81ZH2Ypp2-9" target="k-hOgq2_AKB81ZH2Ypp2-10" edge="1">
          <mxGeometry width="50" height="50" relative="1" as="geometry">
            <mxPoint x="780" y="580" as="sourcePoint" />
            <mxPoint x="950" y="580" as="targetPoint" />
          </mxGeometry>
        </mxCell>
        <mxCell id="k-hOgq2_AKB81ZH2Ypp2-16" value="id_pasillo" style="ellipse;whiteSpace=wrap;html=1;fontFamily=Sofia Sans Semi Condensed;fontSize=15;" parent="1" vertex="1">
          <mxGeometry x="390" y="1250" width="100" height="40" as="geometry" />
        </mxCell>
        <mxCell id="k-hOgq2_AKB81ZH2Ypp2-17" value="" style="endArrow=none;html=1;rounded=0;" parent="1" source="k-hOgq2_AKB81ZH2Ypp2-30" target="k-hOgq2_AKB81ZH2Ypp2-16" edge="1">
          <mxGeometry width="50" height="50" relative="1" as="geometry">
            <mxPoint x="500" y="1410" as="sourcePoint" />
            <mxPoint x="750" y="1510" as="targetPoint" />
          </mxGeometry>
        </mxCell>
        <mxCell id="k-hOgq2_AKB81ZH2Ypp2-18" value="unidades_pasillo" style="ellipse;whiteSpace=wrap;html=1;fontFamily=Sofia Sans Semi Condensed;fontSize=15;" parent="1" vertex="1">
          <mxGeometry x="570" y="1250" width="100" height="40" as="geometry" />
        </mxCell>
        <mxCell id="k-hOgq2_AKB81ZH2Ypp2-19" value="" style="endArrow=none;html=1;rounded=0;" parent="1" source="k-hOgq2_AKB81ZH2Ypp2-30" target="k-hOgq2_AKB81ZH2Ypp2-18" edge="1">
          <mxGeometry width="50" height="50" relative="1" as="geometry">
            <mxPoint x="510" y="1420" as="sourcePoint" />
            <mxPoint x="760" y="1520" as="targetPoint" />
          </mxGeometry>
        </mxCell>
        <mxCell id="k-hOgq2_AKB81ZH2Ypp2-20" value="unidades_bodega" style="ellipse;whiteSpace=wrap;html=1;fontFamily=Sofia Sans Semi Condensed;fontSize=15;" parent="1" vertex="1">
          <mxGeometry x="686" y="1201" width="100" height="40" as="geometry" />
        </mxCell>
        <mxCell id="k-hOgq2_AKB81ZH2Ypp2-21" value="" style="endArrow=none;html=1;rounded=0;" parent="1" source="k-hOgq2_AKB81ZH2Ypp2-30" target="k-hOgq2_AKB81ZH2Ypp2-20" edge="1">
          <mxGeometry width="50" height="50" relative="1" as="geometry">
            <mxPoint x="520" y="1430" as="sourcePoint" />
            <mxPoint x="770" y="1530" as="targetPoint" />
          </mxGeometry>
        </mxCell>
        <mxCell id="k-hOgq2_AKB81ZH2Ypp2-22" value="password" style="ellipse;whiteSpace=wrap;html=1;fontFamily=Sofia Sans Semi Condensed;fontSize=15;" parent="1" vertex="1">
          <mxGeometry x="740" y="530" width="100" height="40" as="geometry" />
        </mxCell>
        <mxCell id="k-hOgq2_AKB81ZH2Ypp2-23" value="" style="endArrow=none;html=1;rounded=0;" parent="1" source="k-hOgq2_AKB81ZH2Ypp2-9" target="k-hOgq2_AKB81ZH2Ypp2-22" edge="1">
          <mxGeometry width="50" height="50" relative="1" as="geometry">
            <mxPoint x="1020" y="420" as="sourcePoint" />
            <mxPoint x="1270" y="520" as="targetPoint" />
          </mxGeometry>
        </mxCell>
        <mxCell id="k-hOgq2_AKB81ZH2Ypp2-24" value="username" style="ellipse;whiteSpace=wrap;html=1;fontFamily=Sofia Sans Semi Condensed;fontSize=15;" parent="1" vertex="1">
          <mxGeometry x="875" y="480" width="100" height="40" as="geometry" />
        </mxCell>
        <mxCell id="k-hOgq2_AKB81ZH2Ypp2-25" value="" style="endArrow=none;html=1;rounded=0;" parent="1" source="k-hOgq2_AKB81ZH2Ypp2-9" target="k-hOgq2_AKB81ZH2Ypp2-24" edge="1">
          <mxGeometry width="50" height="50" relative="1" as="geometry">
            <mxPoint x="1030" y="430" as="sourcePoint" />
            <mxPoint x="1280" y="530" as="targetPoint" />
          </mxGeometry>
        </mxCell>
        <mxCell id="k-hOgq2_AKB81ZH2Ypp2-26" value="rol" style="ellipse;whiteSpace=wrap;html=1;fontFamily=Sofia Sans Semi Condensed;fontSize=15;" parent="1" vertex="1">
          <mxGeometry x="735" y="360" width="100" height="40" as="geometry" />
        </mxCell>
        <mxCell id="k-hOgq2_AKB81ZH2Ypp2-27" value="" style="endArrow=none;html=1;rounded=0;" parent="1" source="k-hOgq2_AKB81ZH2Ypp2-9" target="k-hOgq2_AKB81ZH2Ypp2-26" edge="1">
          <mxGeometry width="50" height="50" relative="1" as="geometry">
            <mxPoint x="1040" y="440" as="sourcePoint" />
            <mxPoint x="1290" y="540" as="targetPoint" />
          </mxGeometry>
        </mxCell>
        <mxCell id="k-hOgq2_AKB81ZH2Ypp2-28" value="id_sucursal" style="rhombus;whiteSpace=wrap;html=1;fontStyle=0" parent="1" vertex="1">
          <mxGeometry x="606" y="570" width="80" height="50" as="geometry" />
        </mxCell>
        <mxCell id="k-hOgq2_AKB81ZH2Ypp2-29" value="1" style="endArrow=none;html=1;rounded=0;" parent="1" source="k-hOgq2_AKB81ZH2Ypp2-1" target="k-hOgq2_AKB81ZH2Ypp2-28" edge="1">
          <mxGeometry x="-0.763" y="-11" width="50" height="50" relative="1" as="geometry">
            <mxPoint x="291" y="410" as="sourcePoint" />
            <mxPoint x="294" y="319" as="targetPoint" />
            <mxPoint as="offset" />
          </mxGeometry>
        </mxCell>
        <mxCell id="k-hOgq2_AKB81ZH2Ypp2-30" value="Productos" style="rounded=0;whiteSpace=wrap;html=1;fontFamily=Sofia Sans Semi Condensed;fontSize=15;" parent="1" vertex="1">
          <mxGeometry x="525" y="1160" width="90" height="40" as="geometry" />
        </mxCell>
        <mxCell id="k-hOgq2_AKB81ZH2Ypp2-31" value="id_producto" style="ellipse;whiteSpace=wrap;html=1;fontFamily=Sofia Sans Semi Condensed;fontSize=15;fontStyle=4" parent="1" vertex="1">
          <mxGeometry x="420" y="1090" width="100" height="40" as="geometry" />
        </mxCell>
        <mxCell id="k-hOgq2_AKB81ZH2Ypp2-32" value="nombre" style="ellipse;whiteSpace=wrap;html=1;fontFamily=Sofia Sans Semi Condensed;fontSize=15;" parent="1" vertex="1">
          <mxGeometry x="350" y="1160" width="100" height="40" as="geometry" />
        </mxCell>
        <mxCell id="k-hOgq2_AKB81ZH2Ypp2-33" value="unidades_vendidas" style="ellipse;whiteSpace=wrap;html=1;fontFamily=Sofia Sans Semi Condensed;fontSize=15;" parent="1" vertex="1">
          <mxGeometry x="670" y="1110" width="100" height="40" as="geometry" />
        </mxCell>
        <mxCell id="k-hOgq2_AKB81ZH2Ypp2-34" value="" style="endArrow=none;html=1;rounded=0;" parent="1" source="k-hOgq2_AKB81ZH2Ypp2-30" target="k-hOgq2_AKB81ZH2Ypp2-33" edge="1">
          <mxGeometry width="50" height="50" relative="1" as="geometry">
            <mxPoint x="670" y="1360" as="sourcePoint" />
            <mxPoint x="810" y="1250" as="targetPoint" />
          </mxGeometry>
        </mxCell>
        <mxCell id="k-hOgq2_AKB81ZH2Ypp2-35" value="" style="endArrow=none;html=1;rounded=0;" parent="1" source="k-hOgq2_AKB81ZH2Ypp2-30" target="k-hOgq2_AKB81ZH2Ypp2-32" edge="1">
          <mxGeometry width="50" height="50" relative="1" as="geometry">
            <mxPoint x="650" y="1260" as="sourcePoint" />
            <mxPoint x="820" y="1260" as="targetPoint" />
          </mxGeometry>
        </mxCell>
        <mxCell id="k-hOgq2_AKB81ZH2Ypp2-36" value="" style="endArrow=none;html=1;rounded=0;" parent="1" source="k-hOgq2_AKB81ZH2Ypp2-30" target="k-hOgq2_AKB81ZH2Ypp2-31" edge="1">
          <mxGeometry width="50" height="50" relative="1" as="geometry">
            <mxPoint x="660" y="1270" as="sourcePoint" />
            <mxPoint x="830" y="1270" as="targetPoint" />
          </mxGeometry>
        </mxCell>
        <mxCell id="k-hOgq2_AKB81ZH2Ypp2-37" value="id_sucursal" style="rhombus;whiteSpace=wrap;html=1;" parent="1" vertex="1">
          <mxGeometry x="526" y="1030" width="80" height="50" as="geometry" />
        </mxCell>
        <mxCell id="k-hOgq2_AKB81ZH2Ypp2-38" value="1" style="endArrow=none;html=1;rounded=0;" parent="1" source="k-hOgq2_AKB81ZH2Ypp2-37" target="k-hOgq2_AKB81ZH2Ypp2-30" edge="1">
          <mxGeometry x="0.9089" y="-9" width="50" height="50" relative="1" as="geometry">
            <mxPoint x="630" y="430" as="sourcePoint" />
            <mxPoint x="630" y="350" as="targetPoint" />
            <mxPoint as="offset" />
          </mxGeometry>
        </mxCell>
        <mxCell id="k-hOgq2_AKB81ZH2Ypp2-39" value="1" style="endArrow=none;html=1;rounded=0;" parent="1" source="k-hOgq2_AKB81ZH2Ypp2-37" target="k-hOgq2_AKB81ZH2Ypp2-1" edge="1">
          <mxGeometry x="0.7772" y="9" width="50" height="50" relative="1" as="geometry">
            <mxPoint x="485" y="166" as="sourcePoint" />
            <mxPoint x="615" y="117" as="targetPoint" />
            <mxPoint as="offset" />
          </mxGeometry>
        </mxCell>
        <mxCell id="k-hOgq2_AKB81ZH2Ypp2-40" value="Clientes" style="rounded=0;whiteSpace=wrap;html=1;fontFamily=Sofia Sans Semi Condensed;fontSize=15;" parent="1" vertex="1">
          <mxGeometry x="1430" y="1270" width="90" height="40" as="geometry" />
        </mxCell>
        <mxCell id="k-hOgq2_AKB81ZH2Ypp2-41" value="nit" style="ellipse;whiteSpace=wrap;html=1;fontFamily=Sofia Sans Semi Condensed;fontSize=15;fontStyle=4" parent="1" vertex="1">
          <mxGeometry x="1460" y="1350" width="100" height="40" as="geometry" />
        </mxCell>
        <mxCell id="k-hOgq2_AKB81ZH2Ypp2-42" value="nombre" style="ellipse;whiteSpace=wrap;html=1;fontFamily=Sofia Sans Semi Condensed;fontSize=15;" parent="1" vertex="1">
          <mxGeometry x="1425" y="1150" width="100" height="40" as="geometry" />
        </mxCell>
        <mxCell id="k-hOgq2_AKB81ZH2Ypp2-43" value="total_historico" style="ellipse;whiteSpace=wrap;html=1;fontFamily=Sofia Sans Semi Condensed;fontSize=15;dashed=1;dashPattern=12 12;" parent="1" vertex="1">
          <mxGeometry x="1600" y="1235" width="100" height="40" as="geometry" />
        </mxCell>
        <mxCell id="k-hOgq2_AKB81ZH2Ypp2-44" value="" style="endArrow=none;html=1;rounded=0;" parent="1" source="k-hOgq2_AKB81ZH2Ypp2-40" target="k-hOgq2_AKB81ZH2Ypp2-43" edge="1">
          <mxGeometry width="50" height="50" relative="1" as="geometry">
            <mxPoint x="1575" y="1470" as="sourcePoint" />
            <mxPoint x="1715" y="1360" as="targetPoint" />
          </mxGeometry>
        </mxCell>
        <mxCell id="k-hOgq2_AKB81ZH2Ypp2-45" value="" style="endArrow=none;html=1;rounded=0;" parent="1" source="k-hOgq2_AKB81ZH2Ypp2-40" target="k-hOgq2_AKB81ZH2Ypp2-42" edge="1">
          <mxGeometry width="50" height="50" relative="1" as="geometry">
            <mxPoint x="1555" y="1370" as="sourcePoint" />
            <mxPoint x="1725" y="1370" as="targetPoint" />
          </mxGeometry>
        </mxCell>
        <mxCell id="k-hOgq2_AKB81ZH2Ypp2-46" value="" style="endArrow=none;html=1;rounded=0;" parent="1" source="k-hOgq2_AKB81ZH2Ypp2-40" target="k-hOgq2_AKB81ZH2Ypp2-41" edge="1">
          <mxGeometry width="50" height="50" relative="1" as="geometry">
            <mxPoint x="1565" y="1380" as="sourcePoint" />
            <mxPoint x="1735" y="1380" as="targetPoint" />
          </mxGeometry>
        </mxCell>
        <mxCell id="k-hOgq2_AKB81ZH2Ypp2-47" value="Cajas" style="rounded=0;whiteSpace=wrap;html=1;fontFamily=Sofia Sans Semi Condensed;fontSize=15;" parent="1" vertex="1">
          <mxGeometry x="1190" y="400" width="90" height="40" as="geometry" />
        </mxCell>
        <mxCell id="k-hOgq2_AKB81ZH2Ypp2-48" value="id_caja" style="ellipse;whiteSpace=wrap;html=1;fontFamily=Sofia Sans Semi Condensed;fontSize=15;fontStyle=4" parent="1" vertex="1">
          <mxGeometry x="1185" y="260" width="100" height="40" as="geometry" />
        </mxCell>
        <mxCell id="k-hOgq2_AKB81ZH2Ypp2-53" value="" style="endArrow=none;html=1;rounded=0;" parent="1" source="k-hOgq2_AKB81ZH2Ypp2-47" target="k-hOgq2_AKB81ZH2Ypp2-48" edge="1">
          <mxGeometry width="50" height="50" relative="1" as="geometry">
            <mxPoint x="1270" y="560" as="sourcePoint" />
            <mxPoint x="1440" y="560" as="targetPoint" />
          </mxGeometry>
        </mxCell>
        <mxCell id="k-hOgq2_AKB81ZH2Ypp2-54" value="Ventas" style="rounded=0;whiteSpace=wrap;html=1;fontFamily=Sofia Sans Semi Condensed;fontSize=15;" parent="1" vertex="1">
          <mxGeometry x="1210" y="790" width="90" height="40" as="geometry" />
        </mxCell>
        <mxCell id="k-hOgq2_AKB81ZH2Ypp2-55" value="id_factura" style="ellipse;whiteSpace=wrap;html=1;fontFamily=Sofia Sans Semi Condensed;fontSize=15;fontStyle=4" parent="1" vertex="1">
          <mxGeometry x="1430" y="770" width="100" height="40" as="geometry" />
        </mxCell>
        <mxCell id="k-hOgq2_AKB81ZH2Ypp2-57" value="1" style="endArrow=none;html=1;rounded=0;" parent="1" source="k-hOgq2_AKB81ZH2Ypp2-54" target="k-hOgq2_AKB81ZH2Ypp2-66" edge="1">
          <mxGeometry x="-0.5514" y="-9" width="50" height="50" relative="1" as="geometry">
            <mxPoint x="360" y="830" as="sourcePoint" />
            <mxPoint x="295.80432403821237" y="479.92946081849095" as="targetPoint" />
            <mxPoint as="offset" />
          </mxGeometry>
        </mxCell>
        <mxCell id="k-hOgq2_AKB81ZH2Ypp2-59" value="" style="endArrow=none;html=1;rounded=0;" parent="1" source="k-hOgq2_AKB81ZH2Ypp2-54" target="k-hOgq2_AKB81ZH2Ypp2-55" edge="1">
          <mxGeometry width="50" height="50" relative="1" as="geometry">
            <mxPoint x="1370" y="860" as="sourcePoint" />
            <mxPoint x="1540" y="860" as="targetPoint" />
          </mxGeometry>
        </mxCell>
        <mxCell id="k-hOgq2_AKB81ZH2Ypp2-64" value="total" style="ellipse;whiteSpace=wrap;html=1;fontFamily=Sofia Sans Semi Condensed;fontSize=15;dashed=1;dashPattern=12 12;" parent="1" vertex="1">
          <mxGeometry x="1340" y="950" width="100" height="40" as="geometry" />
        </mxCell>
        <mxCell id="k-hOgq2_AKB81ZH2Ypp2-65" value="" style="endArrow=none;html=1;rounded=0;" parent="1" source="k-hOgq2_AKB81ZH2Ypp2-54" target="k-hOgq2_AKB81ZH2Ypp2-64" edge="1">
          <mxGeometry width="50" height="50" relative="1" as="geometry">
            <mxPoint x="1630" y="720" as="sourcePoint" />
            <mxPoint x="1880" y="820" as="targetPoint" />
          </mxGeometry>
        </mxCell>
        <mxCell id="k-hOgq2_AKB81ZH2Ypp2-66" value="nit" style="rhombus;whiteSpace=wrap;html=1;" parent="1" vertex="1">
          <mxGeometry x="1230" y="1135" width="80" height="50" as="geometry" />
        </mxCell>
        <mxCell id="k-hOgq2_AKB81ZH2Ypp2-69" value="1" style="endArrow=none;html=1;rounded=0;" parent="1" source="k-hOgq2_AKB81ZH2Ypp2-40" target="k-hOgq2_AKB81ZH2Ypp2-66" edge="1">
          <mxGeometry x="-0.5514" y="-9" width="50" height="50" relative="1" as="geometry">
            <mxPoint x="845" y="500" as="sourcePoint" />
            <mxPoint x="690" y="480" as="targetPoint" />
            <mxPoint as="offset" />
          </mxGeometry>
        </mxCell>
        <mxCell id="k-hOgq2_AKB81ZH2Ypp2-71" value="1" style="endArrow=none;html=1;rounded=0;" parent="1" source="k-hOgq2_AKB81ZH2Ypp2-9" target="k-hOgq2_AKB81ZH2Ypp2-72" edge="1">
          <mxGeometry x="-0.5514" y="-9" width="50" height="50" relative="1" as="geometry">
            <mxPoint x="1470" y="655" as="sourcePoint" />
            <mxPoint x="1110" y="855" as="targetPoint" />
            <mxPoint as="offset" />
          </mxGeometry>
        </mxCell>
        <mxCell id="k-hOgq2_AKB81ZH2Ypp2-72" value="dpi" style="rhombus;whiteSpace=wrap;html=1;" parent="1" vertex="1">
          <mxGeometry x="990" y="390" width="80" height="50" as="geometry" />
        </mxCell>
        <mxCell id="k-hOgq2_AKB81ZH2Ypp2-73" value="1" style="endArrow=none;html=1;rounded=0;" parent="1" source="k-hOgq2_AKB81ZH2Ypp2-47" target="k-hOgq2_AKB81ZH2Ypp2-72" edge="1">
          <mxGeometry x="-0.5514" y="-9" width="50" height="50" relative="1" as="geometry">
            <mxPoint x="830" y="615" as="sourcePoint" />
            <mxPoint x="993" y="601" as="targetPoint" />
            <mxPoint as="offset" />
          </mxGeometry>
        </mxCell>
        <mxCell id="k-hOgq2_AKB81ZH2Ypp2-77" value="1" style="endArrow=none;html=1;rounded=0;" parent="1" source="k-hOgq2_AKB81ZH2Ypp2-47" target="k-hOgq2_AKB81ZH2Ypp2-78" edge="1">
          <mxGeometry x="-0.5514" y="-9" width="50" height="50" relative="1" as="geometry">
            <mxPoint x="1600" y="421.6129032258066" as="sourcePoint" />
            <mxPoint x="1270" y="825" as="targetPoint" />
            <mxPoint as="offset" />
          </mxGeometry>
        </mxCell>
        <mxCell id="k-hOgq2_AKB81ZH2Ypp2-78" value="id_Caja" style="rhombus;whiteSpace=wrap;html=1;" parent="1" vertex="1">
          <mxGeometry x="1169" y="630" width="80" height="50" as="geometry" />
        </mxCell>
        <mxCell id="k-hOgq2_AKB81ZH2Ypp2-79" value="1" style="endArrow=none;html=1;rounded=0;" parent="1" source="k-hOgq2_AKB81ZH2Ypp2-54" target="k-hOgq2_AKB81ZH2Ypp2-78" edge="1">
          <mxGeometry x="-0.5514" y="-9" width="50" height="50" relative="1" as="geometry">
            <mxPoint x="1080" y="935" as="sourcePoint" />
            <mxPoint x="1243" y="921" as="targetPoint" />
            <mxPoint as="offset" />
          </mxGeometry>
        </mxCell>
        <mxCell id="k-hOgq2_AKB81ZH2Ypp2-83" value="fecha" style="ellipse;whiteSpace=wrap;html=1;fontFamily=Sofia Sans Semi Condensed;fontSize=15;" parent="1" vertex="1">
          <mxGeometry x="1380" y="700" width="100" height="40" as="geometry" />
        </mxCell>
        <mxCell id="k-hOgq2_AKB81ZH2Ypp2-84" value="" style="endArrow=none;html=1;rounded=0;" parent="1" source="k-hOgq2_AKB81ZH2Ypp2-54" target="k-hOgq2_AKB81ZH2Ypp2-83" edge="1">
          <mxGeometry width="50" height="50" relative="1" as="geometry">
            <mxPoint x="1364" y="700" as="sourcePoint" />
            <mxPoint x="1646" y="800" as="targetPoint" />
          </mxGeometry>
        </mxCell>
        <mxCell id="k-hOgq2_AKB81ZH2Ypp2-85" value="total_descuento" style="ellipse;whiteSpace=wrap;html=1;fontFamily=Sofia Sans Semi Condensed;fontSize=15;dashed=1;dashPattern=12 12;" parent="1" vertex="1">
          <mxGeometry x="1440" y="870" width="100" height="40" as="geometry" />
        </mxCell>
        <mxCell id="k-hOgq2_AKB81ZH2Ypp2-86" value="" style="endArrow=none;html=1;rounded=0;" parent="1" source="k-hOgq2_AKB81ZH2Ypp2-54" target="k-hOgq2_AKB81ZH2Ypp2-85" edge="1">
          <mxGeometry width="50" height="50" relative="1" as="geometry">
            <mxPoint x="1294" y="800" as="sourcePoint" />
            <mxPoint x="1301" y="830" as="targetPoint" />
          </mxGeometry>
        </mxCell>
        <mxCell id="k-hOgq2_AKB81ZH2Ypp2-88" value="ProductoFacturado" style="rounded=0;whiteSpace=wrap;html=1;fontFamily=Sofia Sans Semi Condensed;fontSize=15;" parent="1" vertex="1">
          <mxGeometry x="906" y="930" width="90" height="40" as="geometry" />
        </mxCell>
        <mxCell id="k-hOgq2_AKB81ZH2Ypp2-96" value="subtotal" style="ellipse;whiteSpace=wrap;html=1;fontFamily=Sofia Sans Semi Condensed;fontSize=15;dashed=1;dashPattern=12 12;" parent="1" vertex="1">
          <mxGeometry x="896" y="1020" width="100" height="40" as="geometry" />
        </mxCell>
        <mxCell id="k-hOgq2_AKB81ZH2Ypp2-97" value="" style="endArrow=none;html=1;rounded=0;" parent="1" source="k-hOgq2_AKB81ZH2Ypp2-88" target="k-hOgq2_AKB81ZH2Ypp2-96" edge="1">
          <mxGeometry width="50" height="50" relative="1" as="geometry">
            <mxPoint x="1326" y="860" as="sourcePoint" />
            <mxPoint x="1576" y="960" as="targetPoint" />
          </mxGeometry>
        </mxCell>
        <mxCell id="k-hOgq2_AKB81ZH2Ypp2-98" value="1" style="endArrow=none;html=1;rounded=0;" parent="1" source="k-hOgq2_AKB81ZH2Ypp2-54" target="k-hOgq2_AKB81ZH2Ypp2-99" edge="1">
          <mxGeometry x="-0.5514" y="-9" width="50" height="50" relative="1" as="geometry">
            <mxPoint x="570" y="1152" as="sourcePoint" />
            <mxPoint x="240" y="1555" as="targetPoint" />
            <mxPoint as="offset" />
          </mxGeometry>
        </mxCell>
        <mxCell id="k-hOgq2_AKB81ZH2Ypp2-99" value="id_factura" style="rhombus;whiteSpace=wrap;html=1;" parent="1" vertex="1">
          <mxGeometry x="1070" y="920" width="80" height="50" as="geometry" />
        </mxCell>
        <mxCell id="k-hOgq2_AKB81ZH2Ypp2-100" value="1" style="endArrow=none;html=1;rounded=0;" parent="1" source="k-hOgq2_AKB81ZH2Ypp2-88" target="k-hOgq2_AKB81ZH2Ypp2-99" edge="1">
          <mxGeometry x="-0.5514" y="-9" width="50" height="50" relative="1" as="geometry">
            <mxPoint x="996" y="1065" as="sourcePoint" />
            <mxPoint x="1159" y="1051" as="targetPoint" />
            <mxPoint as="offset" />
          </mxGeometry>
        </mxCell>
        <mxCell id="k-hOgq2_AKB81ZH2Ypp2-101" value="unidades" style="ellipse;whiteSpace=wrap;html=1;fontFamily=Sofia Sans Semi Condensed;fontSize=15;" parent="1" vertex="1">
          <mxGeometry x="901" y="850" width="100" height="40" as="geometry" />
        </mxCell>
        <mxCell id="k-hOgq2_AKB81ZH2Ypp2-102" value="" style="endArrow=none;html=1;rounded=0;" parent="1" source="k-hOgq2_AKB81ZH2Ypp2-88" target="k-hOgq2_AKB81ZH2Ypp2-101" edge="1">
          <mxGeometry width="50" height="50" relative="1" as="geometry">
            <mxPoint x="1060" y="840" as="sourcePoint" />
            <mxPoint x="1342" y="940" as="targetPoint" />
          </mxGeometry>
        </mxCell>
        <mxCell id="k-hOgq2_AKB81ZH2Ypp2-105" value="1" style="endArrow=none;html=1;rounded=0;" parent="1" source="k-hOgq2_AKB81ZH2Ypp2-30" target="k-hOgq2_AKB81ZH2Ypp2-106" edge="1">
          <mxGeometry x="-0.5514" y="-9" width="50" height="50" relative="1" as="geometry">
            <mxPoint x="730" y="1170" as="sourcePoint" />
            <mxPoint x="250" y="1565" as="targetPoint" />
            <mxPoint as="offset" />
          </mxGeometry>
        </mxCell>
        <mxCell id="k-hOgq2_AKB81ZH2Ypp2-106" value="id_producto" style="rhombus;whiteSpace=wrap;html=1;" parent="1" vertex="1">
          <mxGeometry x="755" y="920" width="80" height="50" as="geometry" />
        </mxCell>
        <mxCell id="k-hOgq2_AKB81ZH2Ypp2-107" value="1" style="endArrow=none;html=1;rounded=0;" parent="1" source="k-hOgq2_AKB81ZH2Ypp2-88" target="k-hOgq2_AKB81ZH2Ypp2-106" edge="1">
          <mxGeometry x="-0.5514" y="-9" width="50" height="50" relative="1" as="geometry">
            <mxPoint x="671" y="910" as="sourcePoint" />
            <mxPoint x="849" y="1031" as="targetPoint" />
            <mxPoint as="offset" />
          </mxGeometry>
        </mxCell>
        <mxCell id="k-hOgq2_AKB81ZH2Ypp2-108" value="Tarjetas" style="rounded=0;whiteSpace=wrap;html=1;fontFamily=Sofia Sans Semi Condensed;fontSize=15;" parent="1" vertex="1">
          <mxGeometry x="965" y="1354" width="90" height="40" as="geometry" />
        </mxCell>
        <mxCell id="k-hOgq2_AKB81ZH2Ypp2-109" value="puntos" style="ellipse;whiteSpace=wrap;html=1;fontFamily=Sofia Sans Semi Condensed;fontSize=15;dashed=1;dashPattern=12 12;" parent="1" vertex="1">
          <mxGeometry x="796" y="1344" width="100" height="40" as="geometry" />
        </mxCell>
        <mxCell id="k-hOgq2_AKB81ZH2Ypp2-110" value="" style="endArrow=none;html=1;rounded=0;" parent="1" source="k-hOgq2_AKB81ZH2Ypp2-108" target="k-hOgq2_AKB81ZH2Ypp2-109" edge="1">
          <mxGeometry width="50" height="50" relative="1" as="geometry">
            <mxPoint x="1721" y="1184" as="sourcePoint" />
            <mxPoint x="1971" y="1284" as="targetPoint" />
          </mxGeometry>
        </mxCell>
        <mxCell id="k-hOgq2_AKB81ZH2Ypp2-111" value="nit" style="rhombus;whiteSpace=wrap;html=1;" parent="1" vertex="1">
          <mxGeometry x="1130" y="1344" width="80" height="50" as="geometry" />
        </mxCell>
        <mxCell id="k-hOgq2_AKB81ZH2Ypp2-112" value="1" style="endArrow=none;html=1;rounded=0;" parent="1" source="k-hOgq2_AKB81ZH2Ypp2-108" target="k-hOgq2_AKB81ZH2Ypp2-111" edge="1">
          <mxGeometry x="-0.5514" y="-9" width="50" height="50" relative="1" as="geometry">
            <mxPoint x="2150" y="1535" as="sourcePoint" />
            <mxPoint x="2313" y="1521" as="targetPoint" />
            <mxPoint as="offset" />
          </mxGeometry>
        </mxCell>
        <mxCell id="k-hOgq2_AKB81ZH2Ypp2-113" value="nivel" style="ellipse;whiteSpace=wrap;html=1;fontFamily=Sofia Sans Semi Condensed;fontSize=15;" parent="1" vertex="1">
          <mxGeometry x="970" y="1260" width="100" height="40" as="geometry" />
        </mxCell>
        <mxCell id="k-hOgq2_AKB81ZH2Ypp2-114" value="" style="endArrow=none;html=1;rounded=0;" parent="1" source="k-hOgq2_AKB81ZH2Ypp2-108" target="k-hOgq2_AKB81ZH2Ypp2-113" edge="1">
          <mxGeometry width="50" height="50" relative="1" as="geometry">
            <mxPoint x="1455" y="1164" as="sourcePoint" />
            <mxPoint x="1737" y="1264" as="targetPoint" />
          </mxGeometry>
        </mxCell>
        <mxCell id="k-hOgq2_AKB81ZH2Ypp2-116" value="1" style="endArrow=none;html=1;rounded=0;" parent="1" source="k-hOgq2_AKB81ZH2Ypp2-40" target="k-hOgq2_AKB81ZH2Ypp2-111" edge="1">
          <mxGeometry x="-0.5514" y="-9" width="50" height="50" relative="1" as="geometry">
            <mxPoint x="966" y="1130" as="sourcePoint" />
            <mxPoint x="878" y="925" as="targetPoint" />
            <mxPoint as="offset" />
          </mxGeometry>
        </mxCell>
      </root>
    </mxGraphModel>
  </diagram>
</mxfile>
